<?xml version="1.0" encoding="utf-8"?>
<!-- Generator: Adobe Illustrator 26.2.0, SVG Export Plug-In . SVG Version: 6.00 Build 0)  -->
<svg version="1.1" id="Ebene_1" xmlns="http://www.w3.org/2000/svg" xmlns:xlink="http://www.w3.org/1999/xlink" x="0px" y="0px"
	 viewBox="0 0 200 200" style="enable-background:new 0 0 200 200;" xml:space="preserve">
<style type="text/css">
	.st0{fill:#003978;}
</style>
<g>
	<path class="st0" d="M162.9,23.6c5.7,0,10.4,4.7,10.4,10.4v90c0,5.7-4.7,10.4-10.4,10.4H85.7l-20.5,20.5v-20.5H38.1
		c-5.7,0-10.4-4.7-10.4-10.4V34c0-5.7,4.7-10.4,10.4-10.4H162.9 M162.9,7.6H38.1C23.6,7.6,11.7,19.4,11.7,34v90
		c0,14.5,11.8,26.4,26.4,26.4h11.1v4.5v38.6l27.3-27.3l15.8-15.8h70.5c14.5,0,26.4-11.8,26.4-26.4V34
		C189.3,19.4,177.4,7.6,162.9,7.6L162.9,7.6z"/>
</g>
</svg>
