<?xml version="1.0" encoding="utf-8"?>
<!-- Generator: Adobe Illustrator 26.2.0, SVG Export Plug-In . SVG Version: 6.00 Build 0)  -->
<svg version="1.1" id="Ebene_1" xmlns="http://www.w3.org/2000/svg" xmlns:xlink="http://www.w3.org/1999/xlink" x="0px" y="0px"
	 viewBox="0 0 205 205" style="enable-background:new 0 0 205 205;" xml:space="preserve">
<style type="text/css">
	.st0{fill:#003978;}
</style>
<g>
	<path class="st0" d="M2.3,203.8l17.4-52.6C10.7,136.1,6,118.8,6,101C6,46.5,50.3,2.2,104.8,2.2s98.8,44.3,98.8,98.8
		s-44.3,98.8-98.8,98.8c-18.4,0-36.3-5.1-51.9-14.7L2.3,203.8z M54.5,171.6l2.6,1.7c14.2,9.4,30.7,14.4,47.8,14.4
		c47.8,0,86.6-38.9,86.6-86.6s-38.9-86.6-86.6-86.6S18.2,53.2,18.2,101c0,16.4,4.6,32.4,13.4,46.3l1.5,2.4l-11.2,33.9L54.5,171.6z"
		/>
	<path class="st0" d="M154.2,117c-1.4-2.2-3.4-1.2-11.3-2.5c-7.9-1.3-10.2-3-13.7-2.2c-3.5,0.8-3.8,0.6-6.2,4.8
		c-2.4,4.2-3,5.2-5.4,5.7c-2.4,0.6-10-0.2-21.5-9.6S81.3,96,81.3,93.5c0-2.5,0.8-3.3,4.4-6.6c3.6-3.3,3.3-3.6,3.3-7.1
		s-2.2-5.5-5.2-12.9c-3-7.4-2.5-9.6-4.9-10.4c-2.5-0.8-7.9-1.9-11.2,0c-3.8,2.2-12.3,7.4-12.3,23.6c0,16.2,15.8,32.3,28,43.3
		s37.5,25.5,53.2,21.9c15.8-3.6,18.9-13.1,20.2-17.3C157.8,124.4,155.6,119.3,154.2,117z"/>
</g>
</svg>
