<?xml version="1.0" encoding="utf-8"?>
<!-- Generator: Adobe Illustrator 26.2.0, SVG Export Plug-In . SVG Version: 6.00 Build 0)  -->
<svg version="1.1" id="Ebene_1" xmlns="http://www.w3.org/2000/svg" xmlns:xlink="http://www.w3.org/1999/xlink" x="0px" y="0px"
	 viewBox="0 0 220 430" style="enable-background:new 0 0 220 430;" xml:space="preserve">
<style type="text/css">
	.st0{fill:#003978;}
	.st1{fill:#003978;stroke:#003978;stroke-width:4;}
</style>
<g>
	<g>
		<path class="st0" d="M61.6,57.9C61.9,58.1,76,69,110.3,69.1c0,0,0.1,0,0.2,0c31.1,0,45.3-9,47.7-10.8c0-1.7-0.2-6.9-0.2-7.3
			c0-5.2-7.3-10.1-15.6-10.8l-65-0.1c-8.5,0.8-15.6,5.1-15.7,11C61.7,51.4,61.6,55.9,61.6,57.9C61.6,57.8,61.6,57.9,61.6,57.9z"/>
		<path class="st0" d="M211.1,192.2c-8.2-25.9-41.6-43.3-51.6-50.1c-2.4-1.7-6.6-4.5-11.6-7.8c-1.3-10.8-3.3-28.4-4.1-40.4
			c-0.4-7,1.5-12.5,4.2-17.2c-8.9,2.8-21.3,5.1-37.6,5.1c-0.1,0-0.1,0-0.2,0c-17,0-29.7-2.5-38.8-5.4c2.7,4.7,4.8,10.3,4.3,17.4
			c-0.8,12-2.8,29.7-4.1,40.4c-5,3.3-9.1,6.1-11.6,7.8c-10,6.9-43.5,24.2-51.7,50s-2.6,47-2.6,47s19.6,149.8,20.3,157.5
			c0.7,7.7,23.1,29.3,83.4,29.3c60.3,0.1,82.3-19.8,83.5-29.2c0.7-6.2,21.5-157.5,21.5-157.5S219.3,218,211.1,192.2z M174.3,364.6
			c-0.3,0-0.6,0-0.9-0.1c-3.3-0.5-5.6-3.5-5.1-6.8l15.6-107.6c0-0.3,4.7-26.4-3.5-47.3c-7.6-19.3-22.9-27.7-34.1-33.8
			c-3.5-1.9-6.6-3.6-9.1-5.4c-11.2-8.2-12.6-23.5-12.8-25.6l-4.4-39.1c-0.4-3.3,2-6.3,5.3-6.6c3.3-0.4,6.3,2,6.6,5.3l4.4,39.6
			c0,0.1,0.8,11.6,7.9,16.8c1.8,1.3,4.6,2.8,7.7,4.6c12.1,6.6,30.3,16.6,39.5,40c9.3,23.6,4.6,51.4,4.2,53.8l-15.5,107.2
			C179.8,362.5,177.2,364.6,174.3,364.6z M38.2,202.5c-0.9,2.4-3.2,3.8-5.6,3.8c-0.7,0-1.5-0.1-2.2-0.4c-3.1-1.2-4.6-4.7-3.4-7.8
			c9.2-23.4,27.5-33.3,39.6-39.9c3.2-1.7,5.9-3.2,7.7-4.5c7.1-5.2,7.9-16.7,7.9-16.8l0-0.3l4.5-39c0.4-3.3,3.4-5.7,6.6-5.3
			c3.3,0.4,5.7,3.4,5.3,6.6l-4.5,38.8c-0.2,2.1-1.6,17.4-12.8,25.6c-2.5,1.8-5.5,3.5-9.1,5.4C61.2,174.8,45.9,183.1,38.2,202.5z
			 M91.2,357.3l-0.4-32.4l33.9-0.4l0.4,32.4L91.2,357.3z M144.2,265l-9.7,11.2c-8.5,9.7-11.9,15.9-11.7,28.4l0,3.7l-30.5,0.3
			l-0.1-9.6c-0.2-16.5,3.9-26.1,14.8-38.7l9.2-10.7c6.8-7.7,9.1-16.3,9-26.1c-0.1-12.5-5.9-20.8-16.9-20.7
			C95.9,202.9,91.1,214,91.3,230l0.1,6.1l-32.4,0.4l-0.1-5.6c-0.3-29.5,15.6-50.8,48.1-51.2c34.6-0.4,52,18.1,52.4,46.8
			C159.4,240,155.9,251.4,144.2,265z M109.8,414.3c-0.1,0-0.1,0-0.2,0c-17.2,0-34.1-2-47.7-5.7c-15.8-4.3-23.5-9.7-23.5-16.6
			c0-17.3,51.2-21,71.1-21c0,0,0.1,0,0.1,0c17.3,0,34.2,1.8,47.6,5.1c16.2,4,23.7,9.1,23.7,16.1c0,6.9-7.7,12.3-23.6,16.5
			C143.8,412.3,126.9,414.3,109.8,414.3z M51.9,392.1c6.7,4.1,28.6,10.2,57.7,10.2c0.1,0,0.1,0,0.2,0c29,0,50.8-6,57.6-10.1
			c-6.7-3.8-28.2-9.2-57.7-9.2c-0.1,0-0.2,0-0.2,0C79.9,383,58.6,388.3,51.9,392.1z"/>
	</g>
	<path class="st1" d="M109.9,6.2c-28.5,0-34.8,6.5-34.8,12.7c0,6.4,4.3,28.2,4.8,30.4c0.5,2.2,9.3,7.8,30,7.9
		c20,0,29.6-4.1,29.9-6.4c0.4-2.3,4.9-27,4.9-31.8C144.7,14,138.4,6.2,109.9,6.2z"/>
</g>
</svg>
