<?xml version="1.0" encoding="utf-8"?>
<!-- Generator: Adobe Illustrator 26.2.0, SVG Export Plug-In . SVG Version: 6.00 Build 0)  -->
<svg version="1.1" id="Ebene_1" xmlns="http://www.w3.org/2000/svg" xmlns:xlink="http://www.w3.org/1999/xlink" x="0px" y="0px"
	 viewBox="0 0 200 200" style="enable-background:new 0 0 200 200;" xml:space="preserve">
<style type="text/css">
	.st0{fill:#003978;}
</style>
<path class="st0" d="M162.9,34.6H38.1c-14.5,0-26.4,11.8-26.4,26.4v79c0,14.5,11.8,26.4,26.4,26.4h124.7c14.5,0,26.4-11.8,26.4-26.4
	V61C189.3,46.4,177.4,34.6,162.9,34.6z M38.1,50.6h124.7c5.7,0,10.4,4.7,10.4,10.4v1l-68.7,56.8l-0.3,0.2c-1.9,1.7-5.5,1.7-7.4,0
	L27.7,61.2V61C27.7,55.3,32.4,50.6,38.1,50.6z M162.9,150.4H38.1c-5.7,0-10.4-4.7-10.4-10.4V85.5l56.8,47.6c4.5,4,10.2,5.9,16,5.9
	c5.7,0,11.5-2,16-5.9l56.7-46.9V140C173.3,145.7,168.6,150.4,162.9,150.4z"/>
</svg>
