<?xml version="1.0" encoding="utf-8"?>
<!-- Generator: Adobe Illustrator 26.2.0, SVG Export Plug-In . SVG Version: 6.00 Build 0)  -->
<svg version="1.1" id="Ebene_1" xmlns="http://www.w3.org/2000/svg" xmlns:xlink="http://www.w3.org/1999/xlink" x="0px" y="0px"
	 viewBox="0 0 200 200" style="enable-background:new 0 0 200 200;" xml:space="preserve">
<style type="text/css">
	.st0{fill:#FFFFFF;}
</style>
<path class="st0" d="M100.5,2.2c-54.3,0-98.3,44-98.3,98.3s44,98.3,98.3,98.3s98.3-44,98.3-98.3S154.8,2.2,100.5,2.2z M150.9,109.5
	h-41.4v41.4c0,5-4,9-9,9s-9-4-9-9v-41.4H50.1c-5,0-9-4-9-9s4-9,9-9h41.4V50.1c0-5,4-9,9-9s9,4,9,9v41.4h41.4c5,0,9,4,9,9
	S155.9,109.5,150.9,109.5z"/>
</svg>
