<?xml version="1.0" encoding="utf-8"?>
<!-- Generator: Adobe Illustrator 26.2.0, SVG Export Plug-In . SVG Version: 6.00 Build 0)  -->
<svg version="1.1" id="Ebene_1" xmlns="http://www.w3.org/2000/svg" xmlns:xlink="http://www.w3.org/1999/xlink" x="0px" y="0px"
	 viewBox="0 0 250 230" style="enable-background:new 0 0 250 230;" xml:space="preserve">
<style type="text/css">
	.st0{fill:#FFFFFF;}
</style>
<g>
	<path class="st0" d="M164.1,123.1v34.1c0,5.7-4.7,10.4-10.4,10.4H76.6L56.1,188v-20.5H29c-5.7,0-10.4-4.7-10.4-10.4v-90
		c0-5.7,4.7-10.4,10.4-10.4h124.7c2.7,0,5.2,1.1,7,2.8l11.3-11.3c-4.8-4.6-11.2-7.5-18.3-7.5H29c-14.5,0-26.4,11.8-26.4,26.4v90
		c0,14.5,11.8,26.4,26.4,26.4h11.1v4.5v38.6l27.3-27.3l15.8-15.8h70.5c14.5,0,26.4-11.8,26.4-26.4v-50.1L164.1,123.1z"/>
	<g>
		<path class="st0" d="M118.3,104.4H38.8c-4.4,0-8,3.6-8,8s3.6,8,8,8h74.4L118.3,104.4z"/>
		<path class="st0" d="M145.8,74.5c-0.6-0.2-1.3-0.2-1.9-0.2h-105c-4.4,0-8,3.6-8,8s3.6,8,8,8H130L145.8,74.5z"/>
		<path class="st0" d="M88.6,150.6H38.8c-4.4,0-8-3.6-8-8s3.6-8,8-8h49.8c4.4,0,8,3.6,8,8S93.1,150.6,88.6,150.6z"/>
	</g>
	<g>
		<path class="st0" d="M214,32l7.8,7.8l-78.6,78.6l-11.5,3.7l3.7-11.5L214,32 M214,6.3l-94.5,94.5l-15.9,49.3l49.3-15.9l94.5-94.5
			L214,6.3L214,6.3z"/>
	</g>
</g>
</svg>
