<?xml version="1.0" encoding="utf-8"?>
<!-- Generator: Adobe Illustrator 25.4.1, SVG Export Plug-In . SVG Version: 6.00 Build 0)  -->
<svg version="1.1" id="Ebene_1" xmlns="http://www.w3.org/2000/svg" xmlns:xlink="http://www.w3.org/1999/xlink" x="0px" y="0px"
	 viewBox="0 0 813.2 813.2" style="enable-background:new 0 0 813.2 813.2;" xml:space="preserve">
<style type="text/css">
	.st0{opacity:0.7;fill:#FFFFFF;}
	.st1{fill:#FFFFFF;stroke:#003978;stroke-width:4.7606;}
	.st2{fill:none;stroke:#003978;stroke-width:5.0557;}
	.st3{fill:none;stroke:#003978;stroke-width:4.5183;}
	.st4{fill:#003978;stroke:#003978;stroke-width:2.8758;}
	.st5{fill:none;stroke:#FFFFFF;stroke-width:4.7136;}
	.st6{clip-path:url(#SVGID_00000081637236803597419260000015635146403211980969_);fill:#003978;}
	.st7{clip-path:url(#SVGID_00000081637236803597419260000015635146403211980969_);fill:#4C74A0;}
	
		.st8{clip-path:url(#SVGID_00000018922773354101147270000005287038084558594955_);fill:#FFFFFF;stroke:#003978;stroke-width:4.7606;}
	.st9{fill:#FFFFFF;stroke:#003978;stroke-width:5.9345;}
	.st10{fill:#FFFFFF;stroke:#003978;stroke-width:10.0814;}
	.st11{fill:#B2C3D6;}
</style>
<g>
	<circle class="st0" cx="406.6" cy="406.6" r="406.6"/>
	<g>
		<path class="st1" d="M570.2,183.7c-9.5-6.9-20.6-9-26-2.9c-0.4,0.4-6.7,7.2-7.1,7.7c-7.8,8.8,0.7,31.1-17.2,48.7
			c-11.7,11.6-29.8,27.8-40.9,37.6c-8-1.1-14.9-2.1-18.9-2.6c-16.5-2.1-66.4-14.7-98.2,4.3s-45.2,45.7-45.2,45.7
			s-115.6,171-121.9,179.5c-6.3,8.5-2.9,50.9,58.7,105.5s102.1,54.4,111.8,45.8c6.4-5.7,164.6-141.6,164.6-141.6s24.1-17.2,39.2-51
			s-3.3-81.9-7.4-98c-1-3.9-2.7-10.6-4.8-18.4c8.4-12.2,22.4-32,32.5-45c15.4-19.8,38.5-14.1,46.3-22.9c0.5-0.6,6.4-7.7,6.9-8.3
			c4.7-5.3,1.7-16.9-6.2-25.2"/>
		<path class="st2" d="M534.8,193.7c0,0,2.2,25,36.8,55.7c34.5,30.6,59.3,29.6,59.3,29.6"/>
		<path class="st3" d="M548.7,188.3c0,0,3.2,23.9,32.6,50c28.8,25.6,53.2,26.2,53.2,26.2"/>
		<path class="st4" d="M634.2,178.5c-29.1-25.9-41.4-24.9-47-18.6c-5.8,6.5-21.2,32.7-22.6,35.4c-1.5,2.7,2.4,16.4,23.5,35.2
			c20.5,18.2,33.9,22.6,36.4,20.6c2.4-2,29.4-23.1,33.8-28.1C662.6,218.1,663.3,204.4,634.2,178.5z"/>
		<path class="st5" d="M592,161.8c0,0,11.7,18.7,27.9,33.2c16.2,14.4,34.9,22.6,34.9,22.6"/>
		<path class="st2" d="M351,632c-6.4,7.3-44.6-9.9-81.4-42.6c-36.8-32.7-58.4-68.5-51.9-75.7c6.4-7.3,43.5,11.1,80.4,43.7
			C334.8,590.1,357.4,624.7,351,632z"/>
		<path class="st2" d="M390.3,596.6L503.5,501c0,0,30.4-23.7,42-55.2c13.9-37.9-4.8-67.9-8.2-83.8c-3.4-15.9,8.7-31.2,8.7-31.2
			l37.4-51.3"/>
		<path class="st2" d="M381.5,294.3c36-18.3,68-3.3,84.2-1.7s29.9-12.4,29.9-12.4l46.5-43.2"/>
	</g>
	<g>
		<defs>
			<circle id="SVGID_1_" cx="406.6" cy="406.6" r="406.6"/>
		</defs>
		<clipPath id="SVGID_00000070818686026932997620000010543677578046402469_">
			<use xlink:href="#SVGID_1_"  style="overflow:visible;"/>
		</clipPath>
		<path style="clip-path:url(#SVGID_00000070818686026932997620000010543677578046402469_);fill:#003978;" d="M301.8,844
			C146.9,853.7-20.9,605.2-24.9,525.6c-10.3-203.5,201.5-182.9,201.5-182.9s-48.7,42.4-54.5,124.8c-6.6,93.4,55.3,145.9,166.9,152.1
			c171.3,9.5,175.5-139.6,360.5-150.5c173.2-10.2,182.7,73.8,184.1,74.9c0,0-52.7,136.8-145.4,198.3
			C549.3,834.5,459.3,834.2,301.8,844z"/>
		<path style="clip-path:url(#SVGID_00000070818686026932997620000010543677578046402469_);fill:#4C74A0;" d="M164,651.1
			c-186.8-82.7-74-313.1-74-313.1l32.2,3.3c0,0-112.6,225.2,70.9,295.6c118.6,45.5,241-21.4,241-21.4S307.7,714.8,164,651.1z"/>
		<path style="clip-path:url(#SVGID_00000070818686026932997620000010543677578046402469_);fill:#4C74A0;" d="M64.1,683.1
			C-134.6,583.5,6.1,324.5,6.1,324.5l34.2,4c0,0-119.4,257.9,70,348.6c105.2,50.4,203.1,29.4,203.1,29.4S217,759.7,64.1,683.1z"/>
	</g>
	<g>
		<defs>
			<circle id="SVGID_00000121252224055936511050000013177277503302812291_" cx="406.6" cy="406.6" r="406.6"/>
		</defs>
		<clipPath id="SVGID_00000114070161214517206360000018120083249663244459_">
			<use xlink:href="#SVGID_00000121252224055936511050000013177277503302812291_"  style="overflow:visible;"/>
		</clipPath>
		
			<path style="clip-path:url(#SVGID_00000114070161214517206360000018120083249663244459_);fill:#FFFFFF;stroke:#003978;stroke-width:4.7606;" d="
			M-56.6,374.7c0-30.9,23.2-56.3,53.1-59.8c-0.8-36.7-4.6-80.6,65.1-106.3c126.6-46.8,171.3,55.5,171.3,93.5
			c0,38-30.8,68.8-68.8,68.8c-7.4,0-14.4-1.2-21.1-3.3c-16.9-5.2-32.9-12.7-41.4-4.6c-9.8,9.4,5.1,18.6-7.9,36.4
			c-12.8,17.5-22.2,4.4-30.3,17.2c-10.4,16.4,8.8,14,15.8,51.1c6.9,37-27,60.3-60.3,60.3s-60.3-27-60.3-60.3
			c0-15.5,5.9-29.6,15.5-40.3C-44.3,416.8-56.6,397.2-56.6,374.7z"/>
	</g>
	<circle class="st1" cx="215.5" cy="438" r="30"/>
	<circle class="st9" cx="724.3" cy="483.2" r="37.4"/>
	<circle class="st10" cx="563.3" cy="610.5" r="63.5"/>
	<circle class="st1" cx="99.8" cy="588.2" r="22.3"/>
	<circle class="st1" cx="541" cy="733.5" r="22.3"/>
	<circle class="st1" cx="237.8" cy="170.7" r="22.3"/>
	<circle class="st1" cx="99.8" cy="499.1" r="15.9"/>
	<circle class="st1" cx="406.6" cy="215" r="15.9"/>
	<g>
		<path class="st11" d="M372.6,365.3l5.2-6c27.2-31.4,64-39,98.6-9.1c36.9,32,38,67.8,11.5,98.4c-12.5,14.4-26.8,23.1-51.9,26.6
			l-20.7,2.7c-18,2.3-27.4,5.7-38.9,19l-3.4,3.9l-32.5-28.1l8.8-10.2c15.2-17.6,28.5-23.9,51.9-27.1l19.7-2.6
			c14.4-1.8,24.9-8.7,34-19.2c11.6-13.4,13.3-27.5,1.5-37.7c-13.4-11.6-28.8-4.3-43.6,12.7l-5.7,6.6L372.6,365.3z M359.9,519.7
			l-29.9,34.6L293.8,523l29.9-34.6L359.9,519.7z"/>
	</g>
</g>
</svg>
